<?xml version="1.0" encoding="UTF-8" standalone="no"?>
<!-- Created with Inkscape (http://www.inkscape.org/) -->

<svg
   width="210mm"
   height="297mm"
   viewBox="0 0 210 297"
   version="1.1"
   id="svg5"
   xml:space="preserve"
   inkscape:version="1.2.2 (b0a8486541, 2022-12-01)"
   sodipodi:docname="Logo.svg"
   xmlns:inkscape="http://www.inkscape.org/namespaces/inkscape"
   xmlns:sodipodi="http://sodipodi.sourceforge.net/DTD/sodipodi-0.dtd"
   xmlns="http://www.w3.org/2000/svg"
   xmlns:svg="http://www.w3.org/2000/svg"><sodipodi:namedview
     id="namedview7"
     pagecolor="#ffffff"
     bordercolor="#000000"
     borderopacity="0.25"
     inkscape:showpageshadow="2"
     inkscape:pageopacity="0.0"
     inkscape:pagecheckerboard="0"
     inkscape:deskcolor="#d1d1d1"
     inkscape:document-units="mm"
     showgrid="false"
     inkscape:zoom="0.35212985"
     inkscape:cx="471.417"
     inkscape:cy="531.0541"
     inkscape:window-width="1366"
     inkscape:window-height="695"
     inkscape:window-x="0"
     inkscape:window-y="0"
     inkscape:window-maximized="1"
     inkscape:current-layer="layer1" /><defs
     id="defs2" /><g
     inkscape:label="Layer 1"
     inkscape:groupmode="layer"
     id="layer1"><g
       style="fill:currentColor"
       id="g74"
       transform="matrix(0.20588176,0,0,0.18533622,-0.21289585,41.100048)"><path
         d="M 1024,368 C 1024,164.8 859.2,0 656,0 567.1,0 485.6,31.5 422,83.9 404.4,81.3 386.3,80 368,80 164.8,80 0,244.8 0,448 0,609 103.4,745.9 247.5,795.8 302.5,929.7 434.3,1024 588,1024 c 203.2,0 368,-164.8 368,-368 0,-22.7 -2.1,-45 -6,-66.6 46.4,-61.6 74,-138.3 74,-221.4 z M 390.6,255.9 c 13.4,-31.6 32.1,-60.2 55.6,-85.2 11.5,3.2 22.8,7.2 33.9,11.9 34.3,14.5 65.1,35.3 91.6,61.8 13.6,13.6 25.7,28.4 36.2,44.2 -6.6,-0.4 -13.2,-0.5 -19.9,-0.5 -82.4,0 -158.6,27.1 -219.9,72.9 0.9,-36.5 8.4,-71.8 22.5,-105.1 z m 255.8,117.8 c 6.4,24 9.6,48.8 9.6,74.1 0,38.9 -7.6,76.6 -22.6,112.1 -13.4,31.6 -32.1,60.2 -55.6,85.2 -11.5,-3 -22.8,-7 -33.9,-11.7 -34.3,-14.5 -65.1,-35.3 -91.6,-61.8 -26.5,-26.5 -47.3,-57.3 -61.8,-91.6 -3.4,-8.1 -6.5,-16.4 -9.1,-24.8 1,-1 1.9,-2 2.9,-3 26.5,-26.5 57.3,-47.3 91.6,-61.8 35.5,-15 73.2,-22.6 112.1,-22.6 19.8,0 39.3,2 58.4,5.9 z M 220,656 c 0,13.7 0.8,27.2 2.2,40.4 -21,-12.3 -40.4,-27.3 -57.8,-44.8 C 137.9,625.1 117.1,594.3 102.6,560 87.6,524.6 80,486.9 80,448 c 0,-38.9 7.6,-76.6 22.6,-112.1 14.5,-34.3 35.3,-65.1 61.8,-91.6 26.5,-26.5 57.3,-47.3 91.6,-61.8 30.6,-12.9 62.9,-20.4 96.2,-22.2 C 311.7,219.5 288,291 288,368 c 0,22.7 2.1,45 6,66.6 -46.5,61.6 -74,138.3 -74,221.4 z m 89.6,74.1 c -6.4,-24 -9.6,-48.8 -9.6,-74.1 0,-38.9 7.6,-76.6 22.6,-112.1 1.5,-3.5 3,-7 4.7,-10.4 37.5,74.4 99.5,134.3 175.4,169.1 -7.4,3.9 -14.9,7.5 -22.6,10.8 -35.5,15 -73.2,22.6 -112.1,22.6 -19.8,0 -39.3,-2 -58.4,-5.9 z M 853.3,768 c -14.4,34.4 -35.2,65.2 -61.7,91.6 -26.5,26.5 -57.3,47.3 -91.6,61.8 -35.5,15 -73.2,22.6 -112.1,22.6 -38.9,0 -76.6,-7.6 -112.1,-22.6 -34.3,-14.5 -65.1,-35.3 -91.6,-61.8 -13.6,-13.6 -25.7,-28.4 -36.2,-44.2 6.6,0.4 13.2,0.5 19.9,0.5 88.9,0 170.4,-31.5 234,-83.9 17.6,2.6 35.7,3.9 54,3.9 82.4,0 158.6,-27.1 219.9,-72.9 -0.9,36.4 -8.4,71.7 -22.5,105 z M 733.8,407.6 c 21,12.3 40.4,27.3 57.9,44.8 26.5,26.5 47.3,57.3 61.8,91.6 3.4,8.1 6.5,16.4 9.1,24.8 -1,1 -1.9,2 -2.9,3 -26.5,26.5 -57.3,47.3 -91.6,61.8 -30.6,12.9 -62.9,20.4 -96.2,22.2 C 712.3,596.5 736,525 736,448 c 0,-13.7 -0.8,-27.2 -2.2,-40.4 z m 187.7,72.6 c -1.5,3.5 -3,7 -4.7,10.4 C 874,405.6 799.3,339.6 708.5,308.2 673,221.9 605.8,152.1 521.3,113.4 c 7.4,-3.9 14.9,-7.5 22.6,-10.8 C 579.4,87.6 617.1,80 656,80 c 38.9,0 76.6,7.6 112.1,22.6 34.3,14.5 65.1,35.3 91.6,61.8 26.5,26.5 47.3,57.3 61.8,91.6 15,35.5 22.6,73.2 22.6,112.1 0,38.9 -7.6,76.6 -22.6,112.1 z"
         id="path65" /></g></g></svg>
